<?xml version="1.0" standalone="no"?>
<!DOCTYPE svg PUBLIC "-//W3C//DTD SVG 1.1//EN" "http://www.w3.org/Graphics/SVG/1.1/DTD/svg11.dtd">
<svg xmlns="http://www.w3.org/2000/svg">
<defs >
<font id="Manuale" horiz-adv-x="513" ><font-face
    font-family="Manuale"
    units-per-em="1000"
    panose-1="0 0 0 0 0 0 0 0 0 0"
    ascent="980"
    descent="-236"
    alphabetic="0" />
<glyph unicode=" " horiz-adv-x="203" />
<glyph unicode="!" horiz-adv-x="203" d="M124 187H83L52 611H156L124 187ZM47 47Q47 70 62 86T101 102Q124 102 141 86T158 47Q158 24 141 8T101 -9Q78 -9 63 7T47 47Z" />
<glyph unicode="&quot;" horiz-adv-x="297" d="M37 697H129L94 467H71L37 697ZM169 697H260L226 467H204L169 697Z" />
<glyph unicode="#" horiz-adv-x="556" d="M392 222H510L496 169H378L329 -9H274L323 169H182L134 -9H80L129 169H0L14 222H142L173 333H46L60 386H188L238 563H292L243 386H382L432 563H488L439 386H556L541 333H424L392 222ZM197 222H338L369 333H229L197 222Z" />
<glyph unicode="$" horiz-adv-x="502" d="M236 -116V2Q191 2 145 10T61 32L74 146H111L130 63Q147 59 176 54T239 49Q302 49 338 76T374 147Q374 185 353 214T286 259L174 300Q128 317 100 349T72 449Q72 523 118 565T251 612V713H294V612Q329 611 364 604T432
587L422 463H387L364 556Q351 560 323 562T277 564Q237 564 208 553T164 521T148 468Q148 425 171 402T241 362L349 321Q401 302 427 267T453 169Q453 100 409 57T279 3V-116H236Z" />
<glyph unicode="%" horiz-adv-x="870" d="M368 402Q368 318 347 269T289 198T208 177Q164 177 127 198T69 269T47 402Q47 486 68 535T127 605T208 627Q253 627 289 606T346 536T368 402ZM351 0H297L520 611H574L351 0ZM209 246Q235 246 261 259T306 306T324 406Q324
470 306 502T262 547T209 559Q183 559 156 547T111 501T92 400Q92 337 110 304T156 258T209 246ZM824 218Q824 134 803 85T745 14T664 -8Q619 -8 583 13T524 85T502 218Q502 301 524 350T582 420T664 442Q709 442 745 421T802 352T824 218ZM666 61Q692 61 718 74T762
121T780 221Q780 285 762 318T718 362T666 374Q640 374 613 362T567 316T549 216Q549 153 567 120T612 74T666 61Z" />
<glyph unicode="&amp;" horiz-adv-x="600" d="M399 70Q362 28 321 8T221 -13Q163 -13 125 8T69 65T50 143Q50 195 68 231T116 292T179 336Q153 373 135 416T116 491Q116 533 131 559T169 599T218 618T266 623Q324 623 361 594T399 507Q399 464 381 433T333 378T271
335Q313 281 347 239T415 157Q427 186 434 217T445 287L390 302V332H565V306L490 287Q485 244 473 204T445 128L524 46L595 30V0H465L399 70ZM189 499Q189 468 205 437T245 370Q283 392 311 422T339 493Q339 512 335 532T315 566T264 580Q227 580 208 559T189 499ZM250
46Q292 46 320 60T372 100Q349 127 322 158T265 225T207 299Q179 280 163 263T141 224T134 170Q134 100 164 73T250 46Z" />
<glyph unicode="&apos;" horiz-adv-x="168" d="M38 697H130L96 467H72L38 697Z" />
<glyph unicode="(" horiz-adv-x="278" d="M139 264Q139 203 140 148T148 45T168 -40T208 -108T274 -154L263 -181Q192 -161 152 -129T92 -46T68 81T62 264Q62 372 67 448T92 575T151 658T263 711L274 684Q234 666 208 637T168 570T148 484T141 381T139 264Z" />
<glyph unicode=")" horiz-adv-x="278" d="M139 264Q139 326 138 381T130 483T110 569T70 637T3 684L14 711Q85 691 125 659T185 575T210 448T216 264Q216 157 211 81T186 -45T126 -128T14 -181L3 -154Q44 -137 69 -108T109 -41T130 45T137 147T139 264Z" />
<glyph unicode="*" horiz-adv-x="338" d="M108 431L44 477L132 567L130 572L8 591L31 667L143 612L149 613L130 738H207L189 613L194 610L306 667L329 591L206 572L204 567L291 477L230 431L171 541H167L108 431Z" />
<glyph unicode="+" horiz-adv-x="509" d="M228 117V281H63V334H228V500H280V334H447V281H280V117H228Z" />
<glyph unicode="," horiz-adv-x="164" d="M63 -120L40 -114L56 90L131 108L147 91L63 -120Z" />
<glyph unicode="-" horiz-adv-x="281" d="M273 212H9V261H273V212Z" />
<glyph unicode="." horiz-adv-x="186" d="M152 49Q152 25 134 8T92 -9Q68 -9 50 8T32 49Q32 74 50 91T92 109Q116 109 134 92T152 49Z" />
<glyph unicode="/" horiz-adv-x="342" d="M336 696L64 -138H8L278 696H336Z" />
<glyph unicode="0" horiz-adv-x="502" d="M463 311Q463 191 435 121T359 20T252 -11Q193 -11 145 19T68 121T39 311Q39 430 67 500T144 601T252 632Q311 632 358 602T434 502T463 311ZM252 68Q277 68 303 78T350 116T385 191T399 316Q399 390 386 437T351 509T303
545T252 555Q226 555 200 545T151 509T116 434T103 308Q103 234 116 187T151 114T199 78T252 68Z" />
<glyph unicode="1" horiz-adv-x="502" d="M460 33V0H68V33L231 60V541H73V578L316 614V60L460 33Z" />
<glyph unicode="2" horiz-adv-x="502" d="M47 0L32 50L238 252Q293 306 319 351T346 458Q346 507 316 538T229 569Q186 569 149 560T74 533L56 576Q91 596 140 611T241 627Q294 627 337 611T407 558T433 460Q433 392 391 332T289 217L120 63H391L430 144H467L453 0H47Z" />
<glyph unicode="3" horiz-adv-x="502" d="M247 627Q292 627 329 613T387 569T409 494Q409 452 391 422T344 371T281 336Q353 327 396 284T440 172Q440 81 384 36T219 -9Q169 -9 124 -1T43 22L54 71Q95 56 127 51T188 46Q235 46 271 59T328 100T349 172Q349 217
333 243T289 281T230 298T164 302L161 346Q249 355 285 391T321 480Q321 520 294 544T210 569Q182 569 149 560T80 533L61 574Q84 588 114 600T178 619T247 627Z" />
<glyph unicode="4" horiz-adv-x="502" d="M299 0V140H15L1 181L315 620L377 613V198H460V140H377V0H299ZM77 198H299V512L77 198Z" />
<glyph unicode="5" horiz-adv-x="502" d="M414 611V544H153L140 386Q242 386 303 367T396 318T437 251T447 181Q447 95 391 43T226 -9Q169 -9 126 1T47 24L62 70Q103 56 135 51T196 46Q267 46 312 82T357 181Q357 266 292 297T102 328L84 347L108 611H414Z" />
<glyph unicode="6" horiz-adv-x="502" d="M129 307Q161 340 203 358T297 376Q362 376 400 351T454 287T470 202Q470 174 462 138T430 67T360 10T238 -12Q178 -12 140 8T80 63T49 144T40 244Q40 335 60 400T113 510T185 579T266 616T341 627Q363 627 383 625T422
618L416 572Q399 574 385 575T357 577Q305 577 254 548T168 459T129 307ZM126 232Q126 178 138 135T175 65T243 39Q316 39 350 78T384 179Q384 218 375 250T343 301T277 321Q233 321 191 295T126 232Z" />
<glyph unicode="7" horiz-adv-x="502" d="M50 473L42 611H444L459 560L226 -9L136 0L390 551H104L83 473H50Z" />
<glyph unicode="8" horiz-adv-x="502" d="M236 -13Q162 -13 120 9T61 65T44 136Q44 186 76 234T179 314Q130 343 97 379T63 474Q63 516 83 551T146 606T253 627Q315 627 355 610T416 563T436 496Q436 470 426 442T385 388T296 337Q335 317 368 294T421 240T442
164Q442 85 389 36T236 -13ZM232 36Q287 36 325 61T364 140Q364 172 353 193T315 234T245 277L215 293Q181 271 151 235T120 147Q120 89 152 63T232 36ZM255 358Q305 384 331 410T358 480Q358 523 332 551T253 579Q207 579 174 557T140 486Q140 445 171 415T255
358Z" />
<glyph unicode="9" horiz-adv-x="502" d="M69 62Q99 53 128 48T184 43Q239 43 282 67T350 144T376 283Q330 258 289 246T213 234Q158 234 120 259T61 327T41 421Q41 450 49 485T79 552T144 606T256 627Q319 627 359 602T423 533T455 439T464 334Q464 226 441 158T380
53T297 2T208 -12Q162 -12 125 -6T56 13L69 62ZM378 347Q378 422 367 472T329 548T252 574Q195 574 162 536T128 436Q128 358 161 325T241 291Q275 291 311 306T378 347Z" />
<glyph unicode=":" horiz-adv-x="186" d="M152 400Q152 376 134 359T92 342Q68 342 50 359T32 400Q32 425 50 442T92 460Q116 460 134 443T152 400ZM152 49Q152 25 134 8T92 -9Q68 -9 50 8T32 49Q32 74 50 91T92 109Q116 109 134 92T152 49Z" />
<glyph unicode=";" horiz-adv-x="186" d="M152 400Q152 376 134 359T92 342Q68 342 50 359T32 400Q32 425 50 442T92 460Q116 460 134 443T152 400ZM54 -120L31 -114L47 90L123 108L138 91L54 -120Z" />
<glyph unicode="&lt;" horiz-adv-x="509" d="M411 119L58 308L411 497L441 447L167 308L441 169L411 119Z" />
<glyph unicode="=" horiz-adv-x="509" d="M63 363V417H447V363H63ZM63 200V252H447V200H63Z" />
<glyph unicode="&gt;" horiz-adv-x="509" d="M98 119L69 169L342 308L69 447L98 497L451 308L98 119Z" />
<glyph unicode="?" horiz-adv-x="389" d="M208 627Q260 627 295 610T350 563T369 489Q369 448 354 409T296 331T175 247L163 159H122L112 270Q175 304 213 334T268 400T286 481Q286 532 261 554T186 577Q171 577 155 575T118 567L97 487H69L59 592Q85 606 127
616T208 627ZM142 102Q165 102 181 86T197 47Q197 24 181 8T142 -9Q119 -9 103 7T86 47Q86 70 102 86T142 102Z" />
<glyph unicode="@" horiz-adv-x="724" d="M110 238Q110 139 141 78T227 -10T356 -38Q415 -38 465 -27T577 6L588 -25Q528 -53 469 -68T338 -83Q257 -83 199 -57T105 16T51 121T34 244Q34 303 52 358T109 459T210 531T363 558Q462 558 526 533T625 466T675 374T690
272Q690 212 668 163T603 85T499 56Q477 56 455 66T428 97Q400 77 372 65T317 52Q272 52 251 80T229 142Q229 160 235 179T261 214T317 238L427 263V321Q427 349 415 364T367 379Q334 379 306 373T255 358L243 386Q272 402 308 412T381 422Q433 422 462 405T492
342V119Q492 110 500 103T519 96Q557 96 578 120T607 188T616 286Q616 348 591 400T513 484T374 516Q277 516 219 479T136 378T110 238ZM354 213Q320 206 309 191T298 152Q298 124 310 113T352 101Q372 101 393 108T427 124V229L354 213Z" />
<glyph unicode="A" horiz-adv-x="594" d="M131 52L203 33V0H0V33L72 52L259 611L317 624L514 52L586 33V0H369V33L429 50L393 152H164L131 52ZM276 492L178 198H378L276 492Z" />
<glyph unicode="B" horiz-adv-x="558" d="M350 323Q430 307 466 268T503 169Q503 94 445 47T283 0H38V33L128 53V558L38 578V611H277Q352 611 397 592T462 540T482 466Q482 407 449 371T350 323ZM258 340Q300 340 331 352T379 391T396 457Q396 515 360 541T273
568Q258 568 243 566T211 559V340H258ZM211 49Q226 45 241 43T271 41Q309 41 341 54T394 96T414 174Q414 237 373 268T252 299H211V49Z" />
<glyph unicode="C" horiz-adv-x="552" d="M502 23Q462 8 422 0T324 -9Q223 -9 161 34T70 149T41 309Q41 396 69 468T159 584T324 627Q387 627 428 618T502 597L493 470H457L432 567Q407 572 384 575T340 578Q277 578 236 556T172 495T140 409T131 309Q131 260
141 212T174 125T238 63T337 39Q357 39 381 42T432 54L457 138H494L502 23Z" />
<glyph unicode="D" horiz-adv-x="639" d="M300 611Q408 611 473 574T568 471T598 318Q598 231 570 159T481 43T317 0H38V33L128 53V558L38 578V611H300ZM290 564Q265 564 245 562T211 558V58Q230 51 264 46T328 41Q385 41 420 68T475 137T501 228T508 318Q508
392 483 447T410 533T290 564Z" />
<glyph unicode="E" horiz-adv-x="544" d="M383 389H419V208H383L359 277H217V56H433L459 147H498V0H39V33L134 53V558L39 578V611H473V479H434L413 559H217V323H362L383 389Z" />
<glyph unicode="F" horiz-adv-x="498" d="M473 611V479H434L413 559H217V313H362L383 379H419V198H383L359 267H217V54L330 34V0H38V33L133 53V558L38 578V611H473Z" />
<glyph unicode="G" horiz-adv-x="600" d="M448 567Q429 572 403 575T346 578Q279 578 237 553T171 486T140 398T131 309Q131 267 140 220T172 131T236 63T343 37Q369 37 392 41T436 56V234L347 254V288H590V254L519 234V31Q485 11 440 0T339 -11Q256 -11 199 14T107
84T57 186T41 309Q41 374 57 431T109 533T203 602T346 627Q373 627 406 624T470 615T524 597L510 470H472L448 567Z" />
<glyph unicode="H" horiz-adv-x="723" d="M39 0V33L128 53V559L39 578V611H300V578L211 559V329H513V559L424 578V611H685V578L596 559V53L686 33V0H424V33L513 53V280H211V53L300 33V0H39Z" />
<glyph unicode="I" horiz-adv-x="339" d="M38 0V33L128 53V558L38 578V611H301V578L211 558V53L301 33V0H38Z" />
<glyph unicode="J" horiz-adv-x="292" d="M55 -149Q20 -149 -4 -141T-45 -122L-41 -94H33Q81 -94 94 -59T108 30V558L19 578V611H279V578L191 558V63Q191 -19 176 -65T130 -130T55 -149Z" />
<glyph unicode="K" horiz-adv-x="584" d="M574 0H431L211 312V53L301 33V0H38V33L128 53V558L38 578V611H301V578L211 558V324L424 558L359 578V611H563V578L491 558L291 338L493 53L574 33V0Z" />
<glyph unicode="L" horiz-adv-x="478" d="M466 0H38V33L128 53V558L38 578V611H301V578L211 558V56H403L428 147H466V0Z" />
<glyph unicode="M" horiz-adv-x="794" d="M247 0H22V33L103 53L120 559L40 578V611H225L399 122L564 611H755V578L665 558L684 53L776 33V0H514V33L603 53L587 508L410 0L360 -10L173 511L158 53L247 33V0Z" />
<glyph unicode="N" horiz-adv-x="692" d="M444 611H666V578L585 559V0L523 -10L174 488V53L260 33V0H36V33L116 53V559L36 578V611H184L529 130V559L444 578V611Z" />
<glyph unicode="O" horiz-adv-x="658" d="M330 626Q434 626 497 583T588 468T617 308Q617 221 588 149T496 34T330 -9Q227 -9 164 34T71 149T41 308Q41 395 70 467T162 583T330 626ZM527 308Q527 350 519 397T488 485T427 552T324 578Q264 578 226 552T168 485T139
397T131 308Q131 266 139 220T170 132T231 65T333 39Q395 39 433 65T491 132T519 219T527 308Z" />
<glyph unicode="P" horiz-adv-x="521" d="M268 611Q336 611 387 593T467 537T496 441Q496 393 480 357T436 297T372 261T294 249Q282 249 269 250T241 253T213 259V53L317 34V0H39V33L130 53V554L39 576V611H268ZM213 297Q227 292 242 291T272 289Q308 289 338
302T386 347T404 433Q404 505 368 537T277 569Q262 569 245 567T213 559V297Z" />
<glyph unicode="Q" horiz-adv-x="658" d="M682 -126Q665 -134 634 -142T577 -151Q559 -151 543 -149T506 -138T451 -109L271 0Q197 16 146 60T68 168T41 308Q41 395 70 467T162 583T330 626Q435 626 498 583T589 468T618 308Q618 224 590 158T507 50T369 -1Q425
-27 472 -49T553 -85T598 -98H679L682 -126ZM131 308Q131 266 140 220T172 133T234 67T333 41Q392 41 429 66T489 133T519 220T528 308Q528 350 520 397T489 485T427 552T324 578Q264 578 226 552T168 485T139 397T131 308Z" />
<glyph unicode="R" horiz-adv-x="558" d="M441 0Q401 83 377 135T337 218T311 260T287 276T254 279H216V53L309 33V0H40V33L133 53V558L40 578V611H283Q360 611 407 589T475 532T497 457Q497 427 485 394T441 333T352 292Q378 284 393 272T420 236T453 168T509
54L587 33V0H441ZM277 319Q342 319 374 356T406 451Q406 504 375 536T279 569Q265 569 249 567T216 559V319H277Z" />
<glyph unicode="S" horiz-adv-x="458" d="M45 456Q45 536 96 581T244 627Q285 627 326 620T406 600L396 470H359L337 567Q323 572 296 574T250 577Q192 577 158 551T123 474Q123 431 146 407T215 364L323 320Q375 301 401 265T427 163Q427 83 372 36T206 -11Q167
-11 120 -4T34 20L48 138H85L104 52Q121 48 150 43T212 38Q274 38 310 66T346 141Q346 181 327 210T258 258L147 301Q117 313 94 332T58 382T45 456Z" />
<glyph unicode="T" d="M10 611H504L498 471H459L440 559H299V53L405 33V0H109V33L216 53V559H74L54 471H18L10 611Z" />
<glyph unicode="U" horiz-adv-x="651" d="M556 236Q556 209 551 177T533 111T495 51T429 7T329 -10Q254 -10 209 12T140 72T108 160T100 264V558L9 578V611H273V578L183 558V264Q183 204 193 154T236 72T333 41Q395 41 431 66T483 135T499 237V559L413 578V611H636V578L556
559V236Z" />
<glyph unicode="V" horiz-adv-x="600" d="M273 -10L77 558L5 578V611H222V578L163 558L312 126L318 101L324 126L463 558L391 578V611H595V578L523 558L336 2L273 -10Z" />
<glyph unicode="W" horiz-adv-x="748" d="M569 578V611H776V578L703 558L566 2L510 -9L375 418L254 2L199 -9L48 558L-24 578V611H195V578L137 558L251 97H224L349 558L415 570L556 93H533L640 558L569 578Z" />
<glyph unicode="X" horiz-adv-x="565" d="M208 33V0H1V33L70 53L235 307L74 558L7 578V611H231V578L174 558L298 363L422 558L355 578V611H561V578L492 558L331 311L498 52L566 33V0H340V33L399 52L268 254L140 53L208 33Z" />
<glyph unicode="Y" horiz-adv-x="567" d="M363 578V611H569V578L497 558L329 224V53L436 33V0H140V33L247 53V224L80 558L12 578V611H237V578L179 558L304 297L434 558L363 578Z" />
<glyph unicode="Z" horiz-adv-x="518" d="M474 147L463 0H61L43 33L370 558H133L111 479H73L64 611H466L471 579L147 54H398L435 147H474Z" />
<glyph unicode="[" horiz-adv-x="278" d="M257 -166H68V696H257V663L140 656V-124L257 -132V-166Z" />
<glyph unicode="\" horiz-adv-x="342" d="M64 696L336 -138H278L8 696H64Z" />
<glyph unicode="]" horiz-adv-x="278" d="M21 696H210V-166H21V-132L138 -124V656L21 663V696Z" />
<glyph unicode="^" horiz-adv-x="509" d="M50 252L227 610H284L460 252H391L256 532L119 252H50Z" />
<glyph unicode="_" horiz-adv-x="440" d="M440 -59H0V-19H440V-59Z" />
<glyph unicode="`" horiz-adv-x="255" d="M228 558L12 661V679L89 707L242 577L228 558Z" />
<glyph unicode="a" horiz-adv-x="509" d="M231 446Q209 446 182 443T132 432L108 346H78L61 463Q103 479 150 489T249 500Q295 500 329 490T382 457T401 391V58L491 40V12Q462 3 434 0T386 -4Q362 -4 344 9T320 51Q282 23 239 6T147 -11Q112 -11 88 7T52 53T40
112Q40 136 48 164T84 217T167 251L318 278V362Q318 400 301 423T231 446ZM214 217Q164 209 146 183T127 127Q127 84 148 68T200 51Q229 51 261 63T318 88V234L214 217Z" />
<glyph unicode="b" horiz-adv-x="555" d="M167 474Q190 485 221 492T277 500Q388 500 451 440T514 249Q514 201 504 155T467 72T393 13T274 -10Q247 -10 211 -7T141 3T83 18V656L-5 666V689L142 727H167V474ZM167 52Q181 45 207 40T266 34Q327 34 361 58T408 129T422
247Q422 313 409 358T364 428T270 452Q238 452 214 446T167 429V52Z" />
<glyph unicode="c" horiz-adv-x="440" d="M257 -10Q180 -10 132 24T63 116T41 243Q41 315 62 373T131 465T257 500Q304 500 340 493T417 469L398 346H367L343 436Q302 449 258 449Q208 449 181 424T144 353T133 246Q133 187 143 141T182 70T262 44Q300 44 341
50T413 66L419 34Q378 13 341 2T257 -10Z" />
<glyph unicode="d" horiz-adv-x="573" d="M389 46Q352 21 312 6T219 -10Q160 -10 120 25T61 119T41 243Q41 362 100 431T269 500Q299 500 326 495T369 485T386 478V656L296 666V689L442 727H469V58L558 40V12Q529 3 501 0T452 -4Q433 -4 413 9T389 46ZM258 48Q298
48 332 62T386 87V423Q362 437 335 445T272 453Q204 453 169 397T133 246Q133 158 163 103T258 48Z" />
<glyph unicode="e" horiz-adv-x="471" d="M263 -11Q207 -11 165 5T95 53T52 132T38 243Q38 327 62 384T135 470T252 500Q348 500 394 455T440 312Q440 300 440 288T438 262H130V230Q130 172 147 130T198 65T277 42Q309 42 349 48T427 64L433 33Q390 9 352 -1T263
-11ZM132 297L350 307V330Q350 392 328 421T258 451Q194 451 165 416T132 297Z" />
<glyph unicode="f" horiz-adv-x="357" d="M31 0V28L120 53V441H41V470L120 490Q120 565 145 618T215 699T315 727Q331 727 350 725T385 718T412 708L399 594H363L350 658Q337 664 323 666T297 669Q261 669 241 653T213 606T205 530V491H355V432L204 441V53L319 28V0H31Z" />
<glyph unicode="g" horiz-adv-x="510" d="M206 -177Q130 -177 93 -163T44 -127T32 -80Q32 -58 44 -29T90 28Q74 36 67 50T59 83Q59 106 77 132T121 186Q85 211 72 249T59 330Q59 373 79 412T139 475T241 500Q276 500 301 494T350 474L492 511V441H379Q402 421
412 391T422 330Q422 289 404 251T345 188T230 164Q202 164 181 167T160 172Q147 153 140 141T133 116Q133 106 141 95T164 84H329Q372 84 405 77T457 49T476 -15Q476 -52 449 -89T362 -152T206 -177ZM214 -127Q318 -127 361 -100T404 -30Q404 0 387 10T334 20H138Q122
0 114 -20T105 -59Q105 -95 127 -111T214 -127ZM243 211Q299 211 318 243T338 330Q338 383 316 418T240 453Q183 453 164 418T144 330Q144 275 165 243T243 211Z" />
<glyph unicode="h" horiz-adv-x="617" d="M596 0H340V32L423 53V374Q423 414 403 427T323 440Q291 440 257 436T196 424V53L279 32V0H22V32L112 53V656L23 666V689L171 727H196V460Q216 469 245 478T307 493T373 500Q409 500 439 490T488 456T507 391V53L596 32V0Z" />
<glyph unicode="i" horiz-adv-x="311" d="M30 0V32L119 53V430L30 440V463L177 500H202V53L291 32V0H30ZM160 580Q136 580 118 596T100 637Q100 662 118 679T160 697Q183 697 201 680T220 637Q220 612 202 596T160 580Z" />
<glyph unicode="j" horiz-adv-x="298" d="M219 637Q219 614 202 598T160 581Q137 581 120 597T103 637Q103 661 120 679T160 697Q184 697 201 679T219 637ZM27 463L173 500H200V57Q200 -28 185 -77T143 -146T77 -167Q65 -167 43 -162T-4 -144L1 -113H47Q74 -113
89 -98T110 -61T116 -20V430L27 440V463Z" />
<glyph unicode="k" horiz-adv-x="551" d="M258 0H22V32L113 53V656L22 666V689L172 727H197V53L258 32V0ZM561 0H337V32L381 49L213 258L361 441L274 462V491H531V462L436 441L298 276L482 51L561 31V0Z" />
<glyph unicode="l" horiz-adv-x="297" d="M17 0V33L107 53V656L17 666V689L163 727H190V53L280 33V0H17Z" />
<glyph unicode="m" horiz-adv-x="901" d="M28 0V28L117 53V430L28 440V463L174 500H201V460Q220 469 247 478T306 493T369 500Q399 500 428 491T473 460Q495 469 525 478T591 493T663 500Q704 500 732 488T774 452T789 391V53L880 28V0H631V28L706 53V374Q706
412 686 426T604 440Q576 440 545 436T490 424Q492 418 493 410T494 391V53L569 28V0H337V28L411 53V374Q411 414 391 427T308 440Q283 440 253 436T201 424V53L274 28V0H28Z" />
<glyph unicode="n" horiz-adv-x="624" d="M203 460Q223 469 252 478T315 493T382 500Q418 500 448 490T496 456T515 391V53L605 28V0H350V28L432 53V374Q432 414 412 427T332 440Q301 440 266 436T203 424V53L285 28V0H31V28L120 53V430L31 440V463L176 500H203V460Z" />
<glyph unicode="o" horiz-adv-x="547" d="M274 500Q359 500 409 466T483 373T506 243Q506 174 483 117T409 25T274 -10Q191 -10 140 24T65 116T41 243Q41 315 64 373T139 465T274 500ZM414 246Q414 305 402 351T359 425T271 453Q217 453 187 426T145 352T133 246Q133
187 145 140T189 65T277 38Q333 38 362 65T403 139T414 246Z" />
<glyph unicode="p" horiz-adv-x="577" d="M17 -167V-139L106 -113V430L17 440V463Q54 473 100 481T192 494T276 500Q377 500 433 466T512 373T535 243Q535 172 511 117T439 31T320 0Q301 0 280 2T238 11L250 48Q257 47 267 47T284 46Q336 46 367 63T415 109T437
174T443 247Q443 282 438 318T418 384T370 432T284 451Q242 451 189 434V-112L290 -138V-167H17Z" />
<glyph unicode="q" horiz-adv-x="560" d="M470 -113L560 -139V-167H301V-139L390 -113V46Q365 29 342 16T291 -3T221 -10Q163 -10 123 23T63 114T43 243Q43 315 67 373T140 465T267 500Q302 500 341 492T418 463L444 494H470V-113ZM387 419Q359 436 329 444T269
453Q224 453 194 428T150 358T135 258Q135 181 150 135T193 69T260 49Q298 49 331 59T387 88V419Z" />
<glyph unicode="r" horiz-adv-x="399" d="M309 436Q279 436 252 431T200 417V53L313 30V0H28V28L117 54V428L28 440V463L162 500H197V454Q232 476 273 489T352 502Q360 502 365 502T378 501L363 357H330L309 436Z" />
<glyph unicode="s" horiz-adv-x="420" d="M221 449Q173 449 147 431T121 378Q121 345 137 329T193 299L265 273Q332 250 354 220T376 142Q376 72 330 31T191 -10Q158 -10 117 -4T43 16L57 132H88L109 50Q125 46 146 42T196 38Q245 38 273 59T301 127Q301 152 284
170T217 205L154 227Q100 247 76 278T51 359Q51 425 94 462T224 500Q257 500 291 492T358 468L342 361H312L291 434Q278 440 258 444T221 449Z" />
<glyph unicode="t" horiz-adv-x="354" d="M329 11Q309 6 278 1T217 -6T174 -9Q144 -9 127 3T103 34T96 73V440H23V476L104 501L141 601H178V491H343V432L178 440V58L329 38V11Z" />
<glyph unicode="u" horiz-adv-x="597" d="M579 12Q548 3 521 0T473 -4Q454 -4 434 9T409 46Q367 29 319 10T217 -10Q174 -10 149 7T114 51T103 109V430L14 440V463L161 500H187V120Q187 87 201 70T268 52Q295 52 334 62T404 83V430L314 440V463L461 500H488V58L579
40V12Z" />
<glyph unicode="v" horiz-adv-x="500" d="M428 441L256 -4L217 -13L41 441L-19 462L-20 491H194L195 462L129 441L250 112L371 441L286 462V491H494V462L428 441Z" />
<glyph unicode="w" horiz-adv-x="734" d="M687 441L539 -4L490 -13L373 324L261 -4L212 -13L56 441L0 462V491H203V462L141 441L251 112L360 446L413 453L529 112L632 441L546 462V491H750V462L687 441Z" />
<glyph unicode="x" horiz-adv-x="503" d="M511 0H289V32L341 49L241 194L145 50L208 32V0H8V32L80 51L207 240L68 446L12 460V491H206V457L159 449L260 303L356 447L295 458V491H479V458L423 448L292 257L434 51L511 31V0Z" />
<glyph unicode="y" horiz-adv-x="489" d="M207 491V462L151 441L269 122L374 441L300 462V491H494V462L430 441L286 34Q252 -60 214 -113T111 -167Q94 -167 74 -162T33 -144L39 -112H81Q117 -112 141 -100T185 -59T227 20L60 441L2 462V491H207Z" />
<glyph unicode="z" horiz-adv-x="460" d="M313 438H114L98 362H61L48 491H405L422 458L140 51H349L380 130H415L406 0H52L36 34L313 438Z" />
<glyph unicode="{" horiz-adv-x="278" d="M102 674L259 711L270 684L179 647L200 291L99 259L200 228L179 -129L270 -166L259 -192L102 -157L124 217L53 252V267L124 302L102 674Z" />
<glyph unicode="|" horiz-adv-x="359" d="M216 696V-138H143V696H216Z" />
<glyph unicode="}" horiz-adv-x="278" d="M19 -192L8 -166L99 -129L78 228L179 259L78 291L99 647L8 684L19 711L174 674L153 302L224 267V252L153 217L174 -157L19 -192Z" />
<glyph unicode="~" horiz-adv-x="509" d="M162 283Q140 283 122 271T83 228L53 248Q78 298 106 320T166 342Q196 342 225 329T283 303T341 290Q369 290 386 302T422 344L454 324Q402 230 337 230Q311 230 281 243T220 270T162 283Z" />
<glyph unicode="&#xa0;" horiz-adv-x="203" />
<glyph unicode="&#xa1;" horiz-adv-x="203" d="M47 446Q47 469 62 484T101 500Q124 500 141 485T158 446Q158 421 141 405T101 389Q78 389 63 405T47 446ZM156 -120H52L83 304H124L156 -120Z" />
<glyph unicode="&#xa2;" horiz-adv-x="502" d="M253 32Q189 41 146 75T82 168T60 304Q60 395 87 453T162 540T269 573V693H317V573Q352 572 391 563T458 540L448 413H408L384 508Q365 514 339 518T290 523Q240 523 209 497T163 423T148 309Q148 244 160 193T205
113T297 83Q342 83 383 90T453 109L460 77Q426 57 384 44T301 30V-90H253V32Z" />
<glyph unicode="&#xa3;" horiz-adv-x="502" d="M222 151Q222 134 210 115T180 78T140 50L418 60L468 104L484 90L456 0H56L42 41Q42 41 57 49T93 71T128 106T144 153V263H42L50 307H144Q144 412 155 481T202 584T307 619Q348 619 385 612T454 591L444 464H404L382
558Q366 562 352 564T321 566Q276 566 255 537T228 458T222 343V307H418L409 263H222V151Z" />
<glyph unicode="&#xa4;" horiz-adv-x="547" d="M57 79L110 131Q93 156 83 186T73 249Q73 281 83 311T110 366L57 419L107 468L159 414Q184 432 213 442T276 452Q341 452 393 414L446 467L494 419L441 366Q458 341 468 311T479 249Q479 181 441 131L494 80L447
30L393 83Q344 47 276 47Q211 47 159 83L104 29L57 79ZM137 248Q137 210 155 178T206 128T276 109Q315 109 347 127T398 178T417 248Q417 287 398 319T347 370T276 389Q238 389 206 370T156 319T137 248Z" />
<glyph unicode="&#xa5;" horiz-adv-x="502" d="M42 329V368H147L59 558L-3 578V611H211V578L157 558L269 297L384 558L319 578V611H511V578L443 558L356 368H459V329H337L309 268H459V227H291V53L388 33V0H113V33L210 53V227H42V268H193L164 329H42Z" />
<glyph unicode="&#xa6;" horiz-adv-x="359" d="M216 696V373H143V696H216ZM216 184V-138H143V184H216Z" />
<glyph unicode="&#xa7;" horiz-adv-x="328" d="M249 569Q239 572 217 575T174 578Q154 578 135 575T102 558T89 513Q89 488 112 462T171 408T240 353T298 300T322 251Q322 238 321 232T318 217Q246 277 195 317T110 383T58 430T31 469T23 514Q23 554 44 579T100
615T173 627Q212 627 244 620T296 606T316 599L299 493H268L249 569ZM53 130L74 50Q85 47 107 42T158 37Q200 37 228 56T257 113Q257 136 233 162T174 214T103 268T43 321T19 373Q19 381 19 390T23 404Q116 327 175 281T267 208T313 161T326 118Q326 61 282 26T169
-9Q130 -9 95 -4T37 7T14 12L26 130H53Z" />
<glyph unicode="&#xa8;" horiz-adv-x="255" d="M87 635Q87 613 70 597T30 580Q8 580 -9 596T-27 635Q-27 659 -10 676T30 693Q53 693 70 676T87 635ZM282 635Q282 613 265 597T224 580Q202 580 185 596T167 635Q167 659 184 676T224 693Q247 693 264 676T282 635Z" />
<glyph unicode="&#xa9;" horiz-adv-x="494" d="M4 452Q4 519 37 574T125 663T247 696Q314 696 369 663T457 575T490 452Q490 386 457 331T369 242T247 209Q180 209 125 242T37 330T4 452ZM37 452Q37 393 65 345T140 269T247 241Q307 241 354 269T430 345T458 452Q458
512 430 559T355 635T247 663Q188 663 141 635T65 560T37 452ZM342 315Q320 305 300 301T251 296Q198 296 167 314T123 368T110 455Q110 501 124 537T169 593T251 614Q274 614 296 610T342 599L338 533H314L301 579Q289 582 279 583T258 585Q222 585 203 569T177
523T170 455Q170 423 176 393T200 343T256 324Q267 324 277 325T301 330L314 371H338L342 315Z" />
<glyph unicode="&#xaa;" horiz-adv-x="401" d="M184 608Q168 608 149 606T113 599L96 533H69L57 624Q89 637 125 644T201 652Q236 652 262 645T302 619T317 569V324L382 310V287Q360 280 340 277T302 274Q283 274 267 285T248 316Q219 296 188 283T119 269Q94
269 77 282T50 317T40 362Q40 381 46 402T73 442T136 467L246 486V547Q246 576 233 592T184 608ZM174 440Q138 434 125 415T112 374Q112 343 126 331T163 319Q183 319 206 327T246 346V452L174 440Z" />
<glyph unicode="&#xab;" horiz-adv-x="380" d="M29 248L164 426L198 403L117 248L198 93L164 71L29 248ZM322 71L187 248L322 426L357 403L275 248L357 93L322 71Z" />
<glyph unicode="&#xac;" horiz-adv-x="509" d="M397 137V282H62V336H447V137H397Z" />
<glyph unicode="&#xad;" horiz-adv-x="281" d="M273 212H9V261H273V212Z" />
<glyph unicode="&#xae;" horiz-adv-x="494" d="M247 209Q180 209 125 242T37 330T4 452Q4 519 37 574T125 663T247 696Q314 696 369 663T457 575T490 452Q490 386 457 331T369 242T247 209ZM247 241Q307 241 355 269T431 345T459 452Q459 512 431 559T355 635T247
663Q188 663 140 635T64 560T36 452Q36 393 64 345T140 269T247 241ZM124 304V321L158 330V584L124 591V610H249Q305 610 328 586T352 536Q352 522 347 505T326 472T280 450Q292 446 300 433T324 393L359 330L390 322V304H313Q288 355 274 384T250 425T233 441T214
444H208V330L241 321V304H124ZM208 463H234Q266 463 281 482T296 529Q296 555 280 570T228 586Q223 586 218 586T208 586V463Z" />
<glyph unicode="&#xaf;" horiz-adv-x="255" d="M19 661H236V609H19V661Z" />
<glyph unicode="&#xb0;" horiz-adv-x="441" d="M378 557Q378 513 357 478T300 421T220 400Q177 400 141 421T84 477T63 557Q63 600 84 635T141 692T220 714Q264 714 299 693T356 636T378 557ZM220 680Q169 680 141 644T112 557Q112 506 140 470T220 434Q272 434
300 470T328 557Q328 607 300 643T220 680Z" />
<glyph unicode="&#xb1;" horiz-adv-x="509" d="M228 117V281H63V334H228V500H280V334H447V281H280V117H228ZM63 30V82H447V30H63Z" />
<glyph unicode="&#xb2;" horiz-adv-x="389" d="M180 674Q151 674 124 667T67 646L50 681Q77 696 113 707T189 718Q228 718 260 707T311 671T331 601Q331 571 316 542T278 486T226 433L112 329H290L318 385L351 381L342 279H44L34 318L181 461Q217 496 236 528T256
600Q256 633 237 653T180 674Z" />
<glyph unicode="&#xb3;" horiz-adv-x="389" d="M197 714Q246 714 281 691T317 620Q317 578 292 552T231 509Q281 500 309 471T338 396Q338 332 297 301T177 269Q142 269 109 275T48 292L58 331Q91 318 114 315T157 311Q203 311 232 331T261 396Q261 436 242 454T193
477T133 482L130 516Q192 523 217 549T242 610Q242 636 225 652T172 669Q154 669 130 662T77 641L61 675Q87 691 123 702T197 714Z" />
<glyph unicode="&#xb4;" horiz-adv-x="255" d="M28 558L12 577L166 707L242 679V661L28 558Z" />
<glyph unicode="&#xb5;" horiz-adv-x="500" d="M482 10Q457 3 434 0T394 -3Q378 -3 362 8T341 38Q304 19 262 5T189 -9Q173 -9 159 -4T140 13L159 -220H87V358L13 366V386L136 416H157V100Q157 72 169 58T224 43Q256 43 285 50T338 69V358L263 366V386L386 416H408V48L482
33V10Z" />
<glyph unicode="&#xb6;" d="M261 237Q254 235 246 234T229 233Q163 233 117 261T47 336T23 440Q23 497 47 544T117 619T229 647Q248 647 261 644V237ZM478 33V0H186V34L300 54V647H478V613L383 592V53L478 33Z" />
<glyph unicode="&#xb7;" horiz-adv-x="230" d="M172 252Q172 228 156 211T114 194Q91 194 75 211T58 252Q58 278 74 293T114 309Q140 309 156 294T172 252Z" />
<glyph unicode="&#xb8;" horiz-adv-x="255" d="M114 -46Q169 -46 195 -67T221 -116Q221 -144 203 -167T153 -205T86 -219Q73 -219 60 -217T34 -211L42 -186Q62 -192 77 -192Q112 -192 134 -172T156 -124Q156 -104 139 -90T79 -76L76 -67L101 7H131L114 -46Z" />
<glyph unicode="&#xb9;" horiz-adv-x="389" d="M69 650V680L253 708V278H182V650H69Z" />
<glyph unicode="&#xba;" horiz-adv-x="436" d="M219 652Q283 652 321 627T376 558T393 460Q393 409 376 366T321 296T219 270Q155 270 116 296T59 365T41 460Q41 514 59 557T116 626T219 652ZM318 462Q318 506 310 540T280 594T216 614Q176 614 155 594T127 540T119
462Q119 418 127 384T157 329T220 309Q261 309 282 329T310 383T318 462Z" />
<glyph unicode="&#xbb;" horiz-adv-x="380" d="M193 248L57 71L24 93L105 248L24 403L57 426L193 248ZM216 426L351 248L216 71L183 93L263 248L183 403L216 426Z" />
<glyph unicode="&#xbc;" horiz-adv-x="870" d="M19 544V574L203 602V172H132V544H19ZM679 0V96H476L464 129L691 434L749 429V142H808V96H749V0H679ZM533 142H679V337L533 142ZM301 0H242L466 611H524L301 0Z" />
<glyph unicode="&#xbd;" horiz-adv-x="870" d="M19 543V573L203 601V171H132V543H19ZM624 394Q596 394 569 387T512 367L496 402Q522 417 558 428T634 439Q673 439 705 428T757 391T777 322Q777 292 762 263T723 206T671 152L558 49H736L763 104L797 102L788 0H490L480
38L627 181Q662 216 681 248T701 320Q701 352 682 373T624 394ZM291 0H232L456 611H514L291 0Z" />
<glyph unicode="&#xbe;" horiz-adv-x="910" d="M188 610Q237 610 272 587T308 516Q308 475 283 448T222 405Q272 397 300 367T329 292Q329 228 288 196T168 164Q133 164 100 170T39 187L49 226Q82 215 105 211T148 207Q194 207 223 228T252 292Q252 332 233 350T184
373T124 379L121 413Q183 420 208 446T233 506Q233 532 216 548T163 564Q145 564 121 557T68 536L52 572Q78 587 114 598T188 610ZM719 0V96H516L504 129L731 434L789 429V142H848V96H789V0H719ZM573 142H719V337L573 142ZM380 0H321L545 611H603L380 0Z" />
<glyph unicode="&#xbf;" horiz-adv-x="389" d="M241 389Q219 389 203 405T186 446Q186 469 202 484T241 500Q265 500 281 485T297 446Q297 421 281 405T241 389ZM176 -136Q124 -136 88 -119T33 -71T13 2Q13 44 29 83T87 162T209 246L221 332H262L272 221Q210 188
171 157T115 92T97 10Q97 -41 123 -63T198 -86Q213 -86 230 -83T266 -76L286 4H313L324 -101Q307 -110 282 -118T230 -131T176 -136Z" />
<glyph unicode="&#xc0;" horiz-adv-x="594" d="M131 52L203 33V0H0V33L72 52L259 611L317 624L514 52L586 33V0H369V33L429 50L393 152H164L131 52ZM276 492L178 198H378L276 492ZM362 648L146 751V769L223 797L376 667L362 648Z" />
<glyph unicode="&#xc1;" horiz-adv-x="594" d="M131 52L203 33V0H0V33L72 52L259 611L317 624L514 52L586 33V0H369V33L429 50L393 152H164L131 52ZM276 492L178 198H378L276 492ZM214 650L198 669L352 799L428 771V753L214 650Z" />
<glyph unicode="&#xc2;" horiz-adv-x="594" d="M131 52L203 33V0H0V33L72 52L259 611L317 624L514 52L586 33V0H369V33L429 50L393 152H164L131 52ZM276 492L178 198H378L276 492ZM398 651L282 733L171 651L154 669L254 800H314L416 669L398 651Z" />
<glyph unicode="&#xc3;" horiz-adv-x="594" d="M131 52L203 33V0H0V33L72 52L259 611L317 624L514 52L586 33V0H369V33L429 50L393 152H164L131 52ZM276 492L178 198H378L276 492ZM436 762Q420 724 404 697T363 669Q346 669 319 679T265 699T221 709Q210 709 200
700T183 682T176 673L146 685Q162 724 178 751T220 779Q237 779 264 769T318 749T362 739Q374 739 383 748T399 765T405 774L436 762Z" />
<glyph unicode="&#xc4;" horiz-adv-x="594" d="M131 52L203 33V0H0V33L72 52L259 611L317 624L514 52L586 33V0H369V33L429 50L393 152H164L131 52ZM276 492L178 198H378L276 492ZM246 722Q246 700 229 684T189 667Q167 667 150 683T132 722Q132 746 149 763T189
780Q212 780 229 763T246 722ZM441 722Q441 700 424 684T383 667Q361 667 344 683T326 722Q326 746 343 763T383 780Q406 780 423 763T441 722Z" />
<glyph unicode="&#xc5;" horiz-adv-x="594" d="M0 0V33L72 52L259 611L317 624L514 52L586 33V0H369V33L429 50L393 152H164L131 52L203 33V0H0ZM178 198H378L276 492L178 198ZM288 633Q239 633 213 660T187 728Q187 767 213 794T288 822Q338 822 363 795T388
728Q388 688 363 661T288 633ZM288 668Q322 668 330 685T339 728Q339 753 331 770T288 788Q255 788 246 771T237 728Q237 702 246 685T288 668Z" />
<glyph unicode="&#xc6;" horiz-adv-x="736" d="M-14 0V33L58 53L327 564L260 578V611H660V479H621L600 559H437L454 310H559L580 376H617V194H580L557 263H457L471 56H632L658 147H697V0H297V33L390 53L376 263H229L121 53L190 34V0H-14ZM253 310H373L359 515L253 310Z" />
<glyph unicode="&#xc7;" horiz-adv-x="526" d="M277 -219Q264 -219 251 -217T225 -211L233 -186Q253 -192 268 -192Q303 -192 325 -172T347 -124Q347 -104 330 -90T270 -76L267 -67L287 -7Q200 1 146 45T66 158T41 309Q41 396 69 468T159 584T324 627Q387 627
428 618T502 597L493 470H457L432 567Q407 572 384 575T340 578Q277 578 236 556T172 495T140 409T131 309Q131 260 141 212T174 125T238 63T337 39Q357 39 381 42T432 54L457 138H494L502 23Q462 8 422 0T324 -9H302L320 2L305 -46Q360 -46 386 -67T412 -116Q412
-144 394 -167T344 -205T277 -219Z" />
<glyph unicode="&#xc8;" horiz-adv-x="544" d="M39 0V33L134 53V558L39 578V611H473V479H434L413 559H217V323H362L383 389H419V208H383L359 277H217V56H433L459 147H498V0H39ZM387 650L171 753V771L248 799L401 669L387 650Z" />
<glyph unicode="&#xc9;" horiz-adv-x="544" d="M39 0V33L134 53V558L39 578V611H473V479H434L413 559H217V323H362L383 389H419V208H383L359 277H217V56H433L459 147H498V0H39ZM209 650L193 669L347 799L423 771V753L209 650Z" />
<glyph unicode="&#xca;" horiz-adv-x="544" d="M383 389H419V208H383L359 277H217V56H433L459 147H498V0H39V33L134 53V558L39 578V611H473V479H434L413 559H217V323H362L383 389ZM393 651L277 733L166 651L149 669L249 800H309L411 669L393 651Z" />
<glyph unicode="&#xcb;" horiz-adv-x="544" d="M383 389H419V208H383L359 277H217V56H433L459 147H498V0H39V33L134 53V558L39 578V611H473V479H434L413 559H217V323H362L383 389ZM244 722Q244 700 227 684T187 667Q165 667 148 683T130 722Q130 746 147 763T187
780Q210 780 227 763T244 722ZM439 722Q439 700 422 684T381 667Q359 667 342 683T324 722Q324 746 341 763T381 780Q404 780 421 763T439 722Z" />
<glyph unicode="&#xcc;" horiz-adv-x="339" d="M38 0V33L128 53V558L38 578V611H301V578L211 558V53L301 33V0H38ZM269 650L53 753V771L130 799L283 669L269 650Z" />
<glyph unicode="&#xcd;" horiz-adv-x="339" d="M38 0V33L128 53V558L38 578V611H301V578L211 558V53L301 33V0H38ZM73 650L57 669L211 799L287 771V753L73 650Z" />
<glyph unicode="&#xce;" horiz-adv-x="339" d="M38 0V33L128 53V558L38 578V611H301V578L211 558V53L301 33V0H38ZM55 651L38 669L138 800H198L300 669L282 651L166 733L55 651Z" />
<glyph unicode="&#xcf;" horiz-adv-x="339" d="M38 0V33L128 53V558L38 578V611H301V578L211 558V53L301 33V0H38ZM73 667Q51 667 34 683T16 722Q16 746 33 763T73 780Q96 780 113 763T130 722Q130 700 113 684T73 667ZM267 667Q245 667 228 683T210 722Q210 746
227 763T267 780Q290 780 307 763T325 722Q325 700 308 684T267 667Z" />
<glyph unicode="&#xd0;" horiz-adv-x="639" d="M38 0V33L128 53V277H41V323H128V558L38 578V611H300Q408 611 473 574T568 471T598 318Q598 231 570 159T481 43T317 0H38ZM328 41Q385 41 420 68T475 137T501 228T508 318Q508 392 483 447T410 533T290 564Q265
564 245 562T211 558V323H323V277H211V58Q230 51 264 46T328 41Z" />
<glyph unicode="&#xd1;" horiz-adv-x="694" d="M442 611H664V578L583 559V0L521 -10L172 488V53L258 33V0H34V33L114 53V559L34 578V611H182L527 130V559L442 578V611ZM501 762Q485 724 469 697T428 669Q411 669 384 679T330 699T286 709Q275 709 265 700T248
682T241 673L211 685Q227 724 243 751T285 779Q302 779 329 769T383 749T427 739Q439 739 448 748T464 765T470 774L501 762Z" />
<glyph unicode="&#xd2;" horiz-adv-x="658" d="M330 626Q434 626 497 583T588 468T617 308Q617 221 588 149T496 34T330 -9Q227 -9 164 34T71 149T41 308Q41 395 70 467T162 583T330 626ZM527 308Q527 350 519 397T488 485T427 552T324 578Q264 578 226 552T168
485T139 397T131 308Q131 266 139 220T170 132T231 65T333 39Q395 39 433 65T491 132T519 219T527 308ZM422 650L206 753V771L283 799L436 669L422 650Z" />
<glyph unicode="&#xd3;" horiz-adv-x="658" d="M330 626Q434 626 497 583T588 468T617 308Q617 221 588 149T496 34T330 -9Q227 -9 164 34T71 149T41 308Q41 395 70 467T162 583T330 626ZM527 308Q527 350 519 397T488 485T427 552T324 578Q264 578 226 552T168
485T139 397T131 308Q131 266 139 220T170 132T231 65T333 39Q395 39 433 65T491 132T519 219T527 308ZM283 650L267 669L421 799L497 771V753L283 650Z" />
<glyph unicode="&#xd4;" horiz-adv-x="658" d="M330 626Q434 626 497 583T588 468T617 308Q617 221 588 149T496 34T330 -9Q227 -9 164 34T71 149T41 308Q41 395 70 467T162 583T330 626ZM527 308Q527 350 519 397T488 485T427 552T324 578Q264 578 226 552T168
485T139 397T131 308Q131 266 139 220T170 132T231 65T333 39Q395 39 433 65T491 132T519 219T527 308ZM443 651L327 733L216 651L199 669L299 800H359L461 669L443 651Z" />
<glyph unicode="&#xd5;" horiz-adv-x="658" d="M330 626Q434 626 497 583T588 468T617 308Q617 221 588 149T496 34T330 -9Q227 -9 164 34T71 149T41 308Q41 395 70 467T162 583T330 626ZM527 308Q527 350 519 397T488 485T427 552T324 578Q264 578 226 552T168
485T139 397T131 308Q131 266 139 220T170 132T231 65T333 39Q395 39 433 65T491 132T519 219T527 308ZM474 762Q458 724 442 697T401 669Q384 669 357 679T303 699T259 709Q248 709 238 700T221 682T214 673L184 685Q200 724 216 751T258 779Q275 779 302 769T356
749T400 739Q412 739 421 748T437 765T443 774L474 762Z" />
<glyph unicode="&#xd6;" horiz-adv-x="658" d="M330 626Q434 626 497 583T588 468T617 308Q617 221 588 149T496 34T330 -9Q227 -9 164 34T71 149T41 308Q41 395 70 467T162 583T330 626ZM527 308Q527 350 519 397T488 485T427 552T324 578Q264 578 226 552T168
485T139 397T131 308Q131 266 139 220T170 132T231 65T333 39Q395 39 433 65T491 132T519 219T527 308ZM289 723Q289 701 272 685T232 668Q210 668 193 684T175 723Q175 747 192 764T232 781Q255 781 272 764T289 723ZM484 723Q484 701 467 685T426 668Q404 668
387 684T369 723Q369 747 386 764T426 781Q449 781 466 764T484 723Z" />
<glyph unicode="&#xd7;" horiz-adv-x="509" d="M123 141L86 180L217 310L86 441L124 479L254 348L384 478L422 441L291 310L422 180L386 142L254 273L123 141Z" />
<glyph unicode="&#xd8;" horiz-adv-x="658" d="M163 -96L199 16Q116 52 79 131T41 308Q41 395 70 467T162 583T330 626Q347 626 363 625T395 621L423 708H484L451 606Q510 583 546 539T600 435T617 308Q617 221 588 149T496 34T330 -9Q310 -9 291 -7T254 -2L224
-96H163ZM218 75L379 572Q354 578 324 578Q264 578 226 552T168 485T139 397T131 308Q131 269 138 225T165 142T218 75ZM333 39Q395 39 433 65T491 132T519 219T527 308Q527 350 519 395T491 482T432 548L270 48Q299 39 333 39Z" />
<glyph unicode="&#xd9;" horiz-adv-x="651" d="M556 236Q556 209 551 177T533 111T495 51T429 7T329 -10Q254 -10 209 12T140 72T108 160T100 264V558L9 578V611H273V578L183 558V264Q183 204 193 154T236 72T333 41Q395 41 431 66T483 135T499 237V559L413 578V611H636V578L556
559V236ZM392 650L176 753V771L253 799L406 669L392 650Z" />
<glyph unicode="&#xda;" horiz-adv-x="651" d="M556 236Q556 209 551 177T533 111T495 51T429 7T329 -10Q254 -10 209 12T140 72T108 160T100 264V558L9 578V611H273V578L183 558V264Q183 204 193 154T236 72T333 41Q395 41 431 66T483 135T499 237V559L413 578V611H636V578L556
559V236ZM247 650L231 669L385 799L461 771V753L247 650Z" />
<glyph unicode="&#xdb;" horiz-adv-x="651" d="M556 236Q556 209 551 177T533 111T495 51T429 7T329 -10Q254 -10 209 12T140 72T108 160T100 264V558L9 578V611H273V578L183 558V264Q183 204 193 154T236 72T333 41Q395 41 431 66T483 135T499 237V559L413 578V611H636V578L556
559V236ZM456 651L340 733L229 651L212 669L312 800H372L474 669L456 651Z" />
<glyph unicode="&#xdc;" horiz-adv-x="651" d="M556 236Q556 209 551 177T533 111T495 51T429 7T329 -10Q254 -10 209 12T140 72T108 160T100 264V558L9 578V611H273V578L183 558V264Q183 204 193 154T236 72T333 41Q395 41 431 66T483 135T499 237V559L413 578V611H636V578L556
559V236ZM302 722Q302 700 285 684T245 667Q223 667 206 683T188 722Q188 746 205 763T245 780Q268 780 285 763T302 722ZM497 722Q497 700 480 684T439 667Q417 667 400 683T382 722Q382 746 399 763T439 780Q462 780 479 763T497 722Z" />
<glyph unicode="&#xdd;" horiz-adv-x="567" d="M355 578V611H561V578L489 558L321 224V53L428 33V0H132V33L239 53V224L72 558L4 578V611H229V578L171 558L296 297L426 558L355 578ZM204 650L188 669L342 799L418 771V753L204 650Z" />
<glyph unicode="&#xde;" horiz-adv-x="500" d="M38 0V33L128 53V558L38 578V611H301V578L211 558V489H252Q321 489 372 470T451 414T480 319Q480 255 453 213T380 149T279 127Q268 127 257 127T234 130T211 134V53L301 33V0H38ZM256 167Q292 167 322 180T370 225T389
311Q389 383 352 415T261 447Q249 447 237 445T211 440V171Q222 169 233 168T256 167Z" />
<glyph unicode="&#xdf;" horiz-adv-x="599" d="M420 -10Q383 -10 353 -2T296 16L308 130H340L361 48Q371 44 389 40T428 36Q467 36 484 56T502 104Q502 138 481 164T430 213T369 257T317 306T296 366Q296 387 306 403T332 435T363 466T388 503T399 552Q399 571
394 589T377 621T346 643T299 651Q256 651 235 635T208 588T201 519V53L278 36V0H28V28L117 53V441H38V470L117 490Q117 554 132 595T174 659T234 691T304 700Q356 700 397 680T462 628T486 561Q486 528 469 506T431 467T392 430T375 384Q375 365 396 346T447 304T508
256T560 196T581 119Q581 59 539 25T420 -10Z" />
<glyph unicode="&#xe0;" horiz-adv-x="509" d="M231 446Q209 446 182 443T132 432L108 346H78L61 463Q103 479 150 489T249 500Q295 500 329 490T382 457T401 391V58L491 40V12Q462 3 434 0T386 -4Q362 -4 344 9T320 51Q282 23 239 6T147 -11Q112 -11 88 7T52
53T40 112Q40 136 48 164T84 217T167 251L318 278V362Q318 400 301 423T231 446ZM214 217Q164 209 146 183T127 127Q127 84 148 68T200 51Q229 51 261 63T318 88V234L214 217ZM321 558L105 661V679L182 707L335 577L321 558Z" />
<glyph unicode="&#xe1;" horiz-adv-x="509" d="M231 446Q209 446 182 443T132 432L108 346H78L61 463Q103 479 150 489T249 500Q295 500 329 490T382 457T401 391V58L491 40V12Q462 3 434 0T386 -4Q362 -4 344 9T320 51Q282 23 239 6T147 -11Q112 -11 88 7T52
53T40 112Q40 136 48 164T84 217T167 251L318 278V362Q318 400 301 423T231 446ZM214 217Q164 209 146 183T127 127Q127 84 148 68T200 51Q229 51 261 63T318 88V234L214 217ZM175 558L159 577L313 707L389 679V661L175 558Z" />
<glyph unicode="&#xe2;" horiz-adv-x="509" d="M231 446Q209 446 182 443T132 432L108 346H78L61 463Q103 479 150 489T249 500Q295 500 329 490T382 457T401 391V58L491 40V12Q462 3 434 0T386 -4Q362 -4 344 9T320 51Q282 23 239 6T147 -11Q112 -11 88 7T52
53T40 112Q40 136 48 164T84 217T167 251L318 278V362Q318 400 301 423T231 446ZM214 217Q164 209 146 183T127 127Q127 84 148 68T200 51Q229 51 261 63T318 88V234L214 217ZM336 552L229 642L121 552L100 570L198 709H258L358 570L336 552Z" />
<glyph unicode="&#xe3;" horiz-adv-x="509" d="M231 446Q209 446 182 443T132 432L108 346H78L61 463Q103 479 150 489T249 500Q295 500 329 490T382 457T401 391V58L491 40V12Q462 3 434 0T386 -4Q362 -4 344 9T320 51Q282 23 239 6T147 -11Q112 -11 88 7T52
53T40 112Q40 136 48 164T84 217T167 251L318 278V362Q318 400 301 423T231 446ZM214 217Q164 209 146 183T127 127Q127 84 148 68T200 51Q229 51 261 63T318 88V234L214 217ZM381 675Q365 637 349 610T308 582Q291 582 264 592T210 612T166 622Q155 622 145 613T128
595T121 586L91 598Q107 637 123 664T165 692Q182 692 209 682T263 662T307 652Q319 652 328 661T344 678T350 687L381 675Z" />
<glyph unicode="&#xe4;" horiz-adv-x="509" d="M231 446Q209 446 182 443T132 432L108 346H78L61 463Q103 479 150 489T249 500Q295 500 329 490T382 457T401 391V58L491 40V12Q462 3 434 0T386 -4Q362 -4 344 9T320 51Q282 23 239 6T147 -11Q112 -11 88 7T52
53T40 112Q40 136 48 164T84 217T167 251L318 278V362Q318 400 301 423T231 446ZM214 217Q164 209 146 183T127 127Q127 84 148 68T200 51Q229 51 261 63T318 88V234L214 217ZM191 635Q191 613 174 597T134 580Q112 580 95 596T77 635Q77 659 94 676T134 693Q157
693 174 676T191 635ZM386 635Q386 613 369 597T328 580Q306 580 289 596T271 635Q271 659 288 676T328 693Q351 693 368 676T386 635Z" />
<glyph unicode="&#xe5;" horiz-adv-x="509" d="M231 446Q209 446 182 443T132 432L108 346H78L61 463Q103 479 150 489T249 500Q295 500 329 490T382 457T401 391V58L491 40V12Q462 3 434 0T386 -4Q362 -4 344 9T320 51Q282 23 239 6T147 -11Q112 -11 88 7T52
53T40 112Q40 136 48 164T84 217T167 251L318 278V362Q318 400 301 423T231 446ZM214 217Q164 209 146 183T127 127Q127 84 148 68T200 51Q229 51 261 63T318 88V234L214 217ZM334 629Q334 587 309 558T231 529Q179 529 153 558T127 629Q127 672 153 701T231 730Q283
730 308 701T334 629ZM231 695Q200 695 191 676T181 629Q181 602 190 583T231 564Q262 564 271 583T280 629Q280 657 271 676T231 695Z" />
<glyph unicode="&#xe6;" horiz-adv-x="676" d="M140 -10Q97 -10 73 9T40 59T30 119Q30 154 57 186T158 234L287 260V363Q287 401 272 423T205 446Q182 446 163 443T120 432L98 347H67L50 463Q91 479 131 489T222 500Q272 500 305 488T357 443Q383 473 414 486T481
500Q526 500 566 484T631 428T656 319Q656 309 656 302T654 283L364 231Q364 135 393 89T488 43Q527 43 563 49T631 64L638 33Q599 11 561 0T470 -11Q421 -11 391 -1T341 26T305 63Q280 43 257 27T206 0T140 -10ZM187 48Q215 48 237 59T287 91V217L202 201Q149
191 132 174T115 126Q115 92 132 70T187 48ZM365 273L567 316Q567 334 565 356T554 400T528 435T481 449Q445 449 420 430T382 373T365 273Z" />
<glyph unicode="&#xe7;" horiz-adv-x="440" d="M215 -219Q202 -219 189 -217T163 -211L171 -186Q191 -192 206 -192Q241 -192 263 -172T285 -124Q285 -104 268 -90T208 -76L205 -67L225 -8Q159 -1 118 34T58 123T39 243Q39 315 60 373T129 465T255 500Q302 500
338 493T415 469L396 346H365L341 436Q300 449 256 449Q206 449 179 424T142 353T131 246Q131 187 141 141T180 70T260 44Q298 44 339 50T411 66L417 34Q376 13 339 2T255 -10L243 -46Q298 -46 324 -67T350 -116Q350 -144 332 -167T282 -205T215 -219Z" />
<glyph unicode="&#xe8;" horiz-adv-x="471" d="M263 -11Q207 -11 165 5T95 53T52 132T38 243Q38 327 62 384T135 470T252 500Q348 500 394 455T440 312Q440 300 440 288T438 262H130V230Q130 172 147 130T198 65T277 42Q309 42 349 48T427 64L433 33Q390 9 352
-1T263 -11ZM132 297L350 307V330Q350 392 328 421T258 451Q194 451 165 416T132 297ZM330 558L114 661V679L191 707L344 577L330 558Z" />
<glyph unicode="&#xe9;" horiz-adv-x="471" d="M263 -11Q207 -11 165 5T95 53T52 132T38 243Q38 327 62 384T135 470T252 500Q348 500 394 455T440 312Q440 300 440 288T438 262H130V230Q130 172 147 130T198 65T277 42Q309 42 349 48T427 64L433 33Q390 9 352
-1T263 -11ZM132 297L350 307V330Q350 392 328 421T258 451Q194 451 165 416T132 297ZM170 558L154 577L308 707L384 679V661L170 558Z" />
<glyph unicode="&#xea;" horiz-adv-x="471" d="M263 -11Q207 -11 165 5T95 53T52 132T38 243Q38 327 62 384T135 470T252 500Q348 500 394 455T440 312Q440 300 440 288T438 262H130V230Q130 172 147 130T198 65T277 42Q309 42 349 48T427 64L433 33Q390 9 352
-1T263 -11ZM132 297L350 307V330Q350 392 328 421T258 451Q194 451 165 416T132 297ZM144 552L123 570L221 709H281L381 570L359 552L252 642L144 552Z" />
<glyph unicode="&#xeb;" horiz-adv-x="471" d="M263 -11Q207 -11 165 5T95 53T52 132T38 243Q38 327 62 384T135 470T252 500Q348 500 394 455T440 312Q440 300 440 288T438 262H130V230Q130 172 147 130T198 65T277 42Q309 42 349 48T427 64L433 33Q390 9 352
-1T263 -11ZM132 297L350 307V330Q350 392 328 421T258 451Q194 451 165 416T132 297ZM154 580Q132 580 115 596T97 635Q97 659 114 676T154 693Q177 693 194 676T211 635Q211 613 194 597T154 580ZM348 580Q326 580 309 596T291 635Q291 659 308 676T348 693Q371
693 388 676T406 635Q406 613 389 597T348 580Z" />
<glyph unicode="&#xec;" horiz-adv-x="314" d="M291 32V0H30V32L119 53V430L30 440V463L177 500H202V53L291 32ZM211 558L-5 661V679L72 707L225 577L211 558Z" />
<glyph unicode="&#xed;" horiz-adv-x="314" d="M291 32V0H30V32L119 53V430L30 440V463L177 500H202V53L291 32ZM54 558L38 577L192 707L268 679V661L54 558Z" />
<glyph unicode="&#xee;" horiz-adv-x="314" d="M291 32V0H30V32L119 53V430L30 440V463L177 500H202V53L291 32ZM244 552L137 642L29 552L8 570L106 709H166L266 570L244 552Z" />
<glyph unicode="&#xef;" horiz-adv-x="314" d="M291 32V0H30V32L119 53V430L30 440V463L177 500H202V53L291 32ZM103 635Q103 613 86 597T46 580Q24 580 7 596T-11 635Q-11 659 6 676T46 693Q69 693 86 676T103 635ZM298 635Q298 613 281 597T240 580Q218 580
201 596T183 635Q183 659 200 676T240 693Q263 693 280 676T298 635Z" />
<glyph unicode="&#xf0;" horiz-adv-x="547" d="M273 -10Q190 -10 139 24T65 115T41 243Q41 314 64 372T138 465T273 500Q308 500 338 489T391 454Q379 494 360 529T318 596L179 516L157 554L291 631Q268 658 243 683T192 730L213 758Q251 737 283 713T343 661L480
740L503 702L373 627Q427 562 456 492T495 358T506 252Q506 196 493 149T453 66T381 10T273 -10ZM276 38Q335 38 364 67T404 145T414 247Q414 300 403 347T361 423T270 453Q214 453 185 423T145 346T134 247Q134 194 145 146T187 68T276 38Z" />
<glyph unicode="&#xf1;" horiz-adv-x="624" d="M200 460Q220 469 249 478T312 493T379 500Q415 500 445 490T493 456T512 391V53L602 28V0H347V28L429 53V374Q429 414 409 427T329 440Q298 440 263 436T200 424V53L282 28V0H28V28L117 53V430L28 440V463L173 500H200V460ZM455
675Q439 637 423 610T382 582Q365 582 338 592T284 612T240 622Q229 622 219 613T202 595T195 586L165 598Q181 637 197 664T239 692Q256 692 283 682T337 662T381 652Q393 652 402 661T418 678T424 687L455 675Z" />
<glyph unicode="&#xf2;" horiz-adv-x="547" d="M274 500Q359 500 409 466T483 373T506 243Q506 174 483 117T409 25T274 -10Q191 -10 140 24T65 116T41 243Q41 315 64 373T139 465T274 500ZM414 246Q414 305 402 351T359 425T271 453Q217 453 187 426T145 352T133
246Q133 187 145 140T189 65T277 38Q333 38 362 65T403 139T414 246ZM364 558L148 661V679L225 707L378 577L364 558Z" />
<glyph unicode="&#xf3;" horiz-adv-x="547" d="M274 500Q359 500 409 466T483 373T506 243Q506 174 483 117T409 25T274 -10Q191 -10 140 24T65 116T41 243Q41 315 64 373T139 465T274 500ZM414 246Q414 305 402 351T359 425T271 453Q217 453 187 426T145 352T133
246Q133 187 145 140T189 65T277 38Q333 38 362 65T403 139T414 246ZM200 558L184 577L338 707L414 679V661L200 558Z" />
<glyph unicode="&#xf4;" horiz-adv-x="547" d="M274 500Q359 500 409 466T483 373T506 243Q506 174 483 117T409 25T274 -10Q191 -10 140 24T65 116T41 243Q41 315 64 373T139 465T274 500ZM414 246Q414 305 402 351T359 425T271 453Q217 453 187 426T145 352T133
246Q133 187 145 140T189 65T277 38Q333 38 362 65T403 139T414 246ZM381 552L274 642L166 552L145 570L243 709H303L403 570L381 552Z" />
<glyph unicode="&#xf5;" horiz-adv-x="547" d="M274 500Q359 500 409 466T483 373T506 243Q506 174 483 117T409 25T274 -10Q191 -10 140 24T65 116T41 243Q41 315 64 373T139 465T274 500ZM414 246Q414 305 402 351T359 425T271 453Q217 453 187 426T145 352T133
246Q133 187 145 140T189 65T277 38Q333 38 362 65T403 139T414 246ZM420 675Q404 637 388 610T347 582Q330 582 303 592T249 612T205 622Q194 622 184 613T167 595T160 586L130 598Q146 637 162 664T204 692Q221 692 248 682T302 662T346 652Q358 652 367 661T383
678T389 687L420 675Z" />
<glyph unicode="&#xf6;" horiz-adv-x="547" d="M274 500Q359 500 409 466T483 373T506 243Q506 174 483 117T409 25T274 -10Q191 -10 140 24T65 116T41 243Q41 315 64 373T139 465T274 500ZM414 246Q414 305 402 351T359 425T271 453Q217 453 187 426T145 352T133
246Q133 187 145 140T189 65T277 38Q333 38 362 65T403 139T414 246ZM233 635Q233 613 216 597T176 580Q154 580 137 596T119 635Q119 659 136 676T176 693Q199 693 216 676T233 635ZM428 635Q428 613 411 597T370 580Q348 580 331 596T313 635Q313 659 330 676T370
693Q393 693 410 676T428 635Z" />
<glyph unicode="&#xf7;" horiz-adv-x="509" d="M63 282V336H447V282H63ZM254 117Q230 117 212 133T194 174Q194 200 212 217T254 234Q278 234 296 217T314 174Q314 149 296 133T254 117ZM254 382Q230 382 212 399T194 440Q194 465 212 482T254 500Q278 500 296
483T314 440Q314 416 296 399T254 382Z" />
<glyph unicode="&#xf8;" horiz-adv-x="547" d="M130 -92L164 12Q100 41 71 103T41 243Q41 315 64 373T139 465T274 500Q299 500 321 497L349 584H409L376 482Q446 454 476 390T506 243Q506 174 483 117T409 25T274 -10Q258 -10 244 -9T216 -5L188 -92H130ZM183
71L306 450Q290 453 271 453Q217 453 187 426T145 352T133 246Q133 190 144 144T183 71ZM277 38Q333 38 362 65T403 139T414 246Q414 305 402 352T357 426L232 44Q253 38 277 38Z" />
<glyph unicode="&#xf9;" horiz-adv-x="602" d="M578 12Q547 3 520 0T472 -4Q453 -4 433 9T408 46Q366 29 318 10T216 -10Q173 -10 148 7T113 51T102 109V430L13 440V463L160 500H186V120Q186 87 200 70T267 52Q294 52 333 62T403 83V430L313 440V463L460 500H487V58L578
40V12ZM375 558L159 661V679L236 707L389 577L375 558Z" />
<glyph unicode="&#xfa;" horiz-adv-x="602" d="M578 12Q547 3 520 0T472 -4Q453 -4 433 9T408 46Q366 29 318 10T216 -10Q173 -10 148 7T113 51T102 109V430L13 440V463L160 500H186V120Q186 87 200 70T267 52Q294 52 333 62T403 83V430L313 440V463L460 500H487V58L578
40V12ZM202 558L186 577L340 707L416 679V661L202 558Z" />
<glyph unicode="&#xfb;" horiz-adv-x="602" d="M578 12Q547 3 520 0T472 -4Q453 -4 433 9T408 46Q366 29 318 10T216 -10Q173 -10 148 7T113 51T102 109V430L13 440V463L160 500H186V120Q186 87 200 70T267 52Q294 52 333 62T403 83V430L313 440V463L460 500H487V58L578
40V12ZM392 552L285 642L177 552L156 570L254 709H314L414 570L392 552Z" />
<glyph unicode="&#xfc;" horiz-adv-x="602" d="M578 12Q547 3 520 0T472 -4Q453 -4 433 9T408 46Q366 29 318 10T216 -10Q173 -10 148 7T113 51T102 109V430L13 440V463L160 500H186V120Q186 87 200 70T267 52Q294 52 333 62T403 83V430L313 440V463L460 500H487V58L578
40V12ZM249 635Q249 613 232 597T192 580Q170 580 153 596T135 635Q135 659 152 676T192 693Q215 693 232 676T249 635ZM444 635Q444 613 427 597T386 580Q364 580 347 596T329 635Q329 659 346 676T386 693Q409 693 426 676T444 635Z" />
<glyph unicode="&#xfd;" horiz-adv-x="519" d="M229 491V462L173 441L291 122L396 441L322 462V491H516V462L452 441L308 34Q274 -60 236 -113T133 -167Q116 -167 96 -162T55 -144L61 -112H103Q139 -112 163 -100T207 -59T249 20L82 441L24 462V491H229ZM192 558L176
577L330 707L406 679V661L192 558Z" />
<glyph unicode="&#xfe;" horiz-adv-x="579" d="M20 -167V-139L109 -113V656L19 666V689L166 727H191V494Q241 500 290 500Q383 500 437 466T514 373T537 243Q537 172 513 117T441 31T322 0Q303 0 283 2T240 11L252 48Q259 47 269 47T286 46Q338 46 369 63T417
109T438 174T444 247Q444 282 440 318T420 384T371 432T281 451Q256 451 231 447T191 434V-112L292 -138V-167H20Z" />
<glyph unicode="&#xff;" horiz-adv-x="519" d="M229 491V462L173 441L291 122L396 441L322 462V491H516V462L452 441L308 34Q274 -60 236 -113T133 -167Q116 -167 96 -162T55 -144L61 -112H103Q139 -112 163 -100T207 -59T249 20L82 441L24 462V491H229ZM244 635Q244
613 227 597T187 580Q165 580 148 596T130 635Q130 659 147 676T187 693Q210 693 227 676T244 635ZM439 635Q439 613 422 597T381 580Q359 580 342 596T324 635Q324 659 341 676T381 693Q404 693 421 676T439 635Z" />
<glyph unicode="&#x2013;" horiz-adv-x="716" d="M716 212H0V261H716V212Z" />
<glyph unicode="&#x2014;" horiz-adv-x="830" d="M829 212H0V261H829V212Z" />
<glyph unicode="&#x2018;" horiz-adv-x="160" d="M102 652L124 647L109 442L33 424L19 441L102 652Z" />
<glyph unicode="&#x2019;" horiz-adv-x="160" d="M58 424L36 430L51 634L127 652L141 636L58 424Z" />
<glyph unicode="&#x201a;" horiz-adv-x="193" d="M69 -120L47 -114L62 90L138 108L152 91L69 -120Z" />
<glyph unicode="&#x201c;" horiz-adv-x="310" d="M102 652L124 647L109 442L33 424L19 441L102 652ZM252 652L274 647L259 442L183 424L169 441L252 652Z" />
<glyph unicode="&#x201d;" horiz-adv-x="310" d="M58 424L36 430L51 634L127 652L141 636L58 424ZM208 424L186 430L201 634L277 652L291 636L208 424Z" />
<glyph unicode="&#x201e;" horiz-adv-x="342" d="M69 -120L47 -114L62 90L138 108L152 91L69 -120ZM219 -120L196 -114L211 90L287 108L302 91L219 -120Z" />
<glyph unicode="&#x2022;" horiz-adv-x="466" d="M378 347Q378 308 358 275T306 222T233 202Q193 202 160 222T108 275T88 347Q88 388 107 420T160 472T233 492Q273 492 305 473T358 421T378 347Z" />
<glyph unicode="&#x2039;" horiz-adv-x="242" d="M28 248L163 426L197 403L116 248L197 93L163 71L28 248Z" />
<glyph unicode="&#x203a;" horiz-adv-x="242" d="M80 426L214 248L80 71L47 93L127 248L47 403L80 426Z" />
</font>
</defs>
</svg>
